<svg width="32" height="32" viewBox="0 0 32 32" fill="none" xmlns="http://www.w3.org/2000/svg">
<path d="M10.5173 21.1132C10.9118 21.6905 12.1088 22.9228 13.7417 23.2333M13.8643 26C12.8358 25.8306 6 23.6057 6 16.0926C6 9.06329 12.0019 6 16.0008 6C19.9996 6 26 9.06329 26 16.0926C26 23.6057 19.1642 25.8306 18.1357 26C18.1357 26 17.9267 22.5826 18.0487 21.9969C18.1706 21.4113 17.7552 20.4688 17.7552 20.4688C18.7262 20.1055 20.2043 19.5847 20.7001 18.1874C21.0848 17.1032 21.3268 15.5288 20.2508 14.0489C20.2508 14.0489 20.5318 11.6581 19.9996 11.5655C19.4675 11.4729 17.8998 12.5119 17.8998 12.5119C17.4432 12.3825 16.4243 12.1348 16.0018 12.1794C15.5792 12.1348 14.5568 12.3825 14.1002 12.5119C14.1002 12.5119 12.5325 11.4729 12.0004 11.5655C11.4682 11.6581 11.7492 14.0489 11.7492 14.0489C10.6732 15.5288 10.9152 17.1032 11.2999 18.1874C11.7958 19.5847 13.2738 20.1055 14.2448 20.4688C14.2448 20.4688 13.8294 21.4113 13.9514 21.9969C14.0733 22.5826 13.8643 26 13.8643 26Z" stroke="black" stroke-width="1.5" stroke-linecap="round" stroke-linejoin="round"/>
</svg>
