<svg width="32" height="32" viewBox="0 0 32 32" fill="none" xmlns="http://www.w3.org/2000/svg">
<path d="M8.5 13.5H8C7.05719 13.5 6.58579 13.5 6.29289 13.7929C6 14.0858 6 14.5572 6 15.5V24C6 24.9428 6 25.4142 6.29289 25.7071C6.58579 26 7.05719 26 8 26H8.5C9.44281 26 9.91421 26 10.2071 25.7071C10.5 25.4142 10.5 24.9428 10.5 24V15.5C10.5 14.5572 10.5 14.0858 10.2071 13.7929C9.91421 13.5 9.44281 13.5 8.5 13.5Z" stroke="black" stroke-width="1.5"/>
<path d="M10.5 8.25C10.5 9.49264 9.49264 10.5 8.25 10.5C7.00736 10.5 6 9.49264 6 8.25C6 7.00736 7.00736 6 8.25 6C9.49264 6 10.5 7.00736 10.5 8.25Z" stroke="black" stroke-width="1.5"/>
<path d="M16.326 13.5H15.5C14.5572 13.5 14.0858 13.5 13.7929 13.7929C13.5 14.0858 13.5 14.5572 13.5 15.5V24C13.5 24.9428 13.5 25.4142 13.7929 25.7071C14.0858 26 14.5572 26 15.5 26H16C16.9428 26 17.4142 26 17.7071 25.7071C18 25.4142 18 24.9428 18 24L18.0001 20.5001C18.0001 18.8433 18.5281 17.5001 20.0879 17.5001C20.8677 17.5001 21.5 18.1717 21.5 19.0001V23.5001C21.5 24.4429 21.5 24.9143 21.7929 25.2072C22.0857 25.5001 22.5572 25.5001 23.5 25.5001H23.9987C24.9413 25.5001 25.4126 25.5001 25.7055 25.2073C25.9984 24.9145 25.9985 24.4432 25.9987 23.5006L26.0001 18.0002C26.0001 15.515 23.6364 13.5002 21.2968 13.5002C19.9649 13.5002 18.7767 14.1531 18.0001 15.174C18 14.5439 18 14.2289 17.8632 13.995C17.7765 13.8469 17.6531 13.7235 17.505 13.6369C17.2711 13.5 16.9561 13.5 16.326 13.5Z" stroke="black" stroke-width="1.5" stroke-linejoin="round"/>
</svg>
