<svg width="32" height="32" viewBox="0 0 32 32" fill="none" xmlns="http://www.w3.org/2000/svg">
<path d="M10.5756 11.4244C10.5756 8.42861 13.0042 6 16 6C18.9958 6 21.4244 8.42861 21.4244 11.4244C21.4244 16.1722 21.6611 18.5456 26 20.4444C23.7778 21 23.2222 21.5556 22.6667 23.7778C18.7778 23.7778 18.2222 26 16 26C13.7778 26 13.2222 23.7778 9.33333 23.7778C8.77778 21.5556 8.22222 21 6 20.4444C10.3389 18.5456 10.5756 16.1722 10.5756 11.4244Z" stroke="black" stroke-width="1.5" stroke-linecap="round" stroke-linejoin="round"/>
<path d="M6 20.5C9.82356 18.4171 9.82356 16.4503 6.95589 13.5" stroke="black" stroke-width="1.5" stroke-linecap="round"/>
<path d="M26 20.5C22.1764 18.4171 22.1764 16.4503 25.0441 13.5" stroke="black" stroke-width="1.5" stroke-linecap="round"/>
</svg>
