<svg width="32" height="32" viewBox="0 0 32 32" fill="none" xmlns="http://www.w3.org/2000/svg">
<path d="M16 26C21.5228 26 26 21.5228 26 16C26 10.4772 21.5228 6 16 6C10.4772 6 6 10.4772 6 16C6 21.5228 10.4772 26 16 26Z" stroke="black" stroke-width="1.5"/>
<path d="M11.5 16.0685C12.5994 15.6998 13.7764 15.5 15 15.5C17.0238 15.5 18.9199 16.0465 20.5488 17M22 14C20.1509 12.7383 17.9122 12 15.5 12C13.9031 12 12.3822 12.3236 11 12.9084M19.129 20C17.8927 19.3609 16.4894 19 15.0018 19C14.1819 19 13.3876 19.1096 12.6328 19.315" stroke="black" stroke-width="1.5" stroke-linecap="round"/>
</svg>
